<?xml version="1.0" standalone="no"?><!DOCTYPE svg PUBLIC "-//W3C//DTD SVG 1.1//EN" "http://www.w3.org/Graphics/SVG/1.1/DTD/svg11.dtd"><svg t="1767691362236" class="icon" viewBox="0 0 1024 1024" version="1.1" xmlns="http://www.w3.org/2000/svg" p-id="2958" width="400" height="400" xmlns:xlink="http://www.w3.org/1999/xlink"><path d="M797.7216 388.539733c-12.3648-10.914133-16.375467-32.725333-45.5168-38.186666-10.786133-2.0224-24.021333-2.7904-33.621333-1.749334-21.307733 2.312533-41.216 11.707733-60.7744 19.771734l-19.208534 7.9104c-1.416533-0.145067-3.089067-0.426667-4.130133-0.145067l-11.921067 3.208533c-20.898133 1.3824-41.301333-4.829867-59.3664-18.500266-44.731733-33.8688-97.7664-34.8416-134.903466 3.3536l-27.989334 11.904-12.458666 3.8912-11.272534-0.3584c-2.082133-0.810667-9.216-2.474667-12.6464-2.944-0.887467-0.119467-2.414933 0.375467-3.694933 0.6656-32.0256-17.365333-68.352-31.624533-103.432533-25.4976-27.4432 4.795733-40.490667 19.6352-44.2368 48.290133-5.410133-63.2832 5.316267-97.629867 26.8288-157.9008 11.818667-33.092267-7.5008-120.046933 33.885866-208.3072 3.1488-6.715733 17.1776-18.176 24.234667-17.348267 37.725867 4.437333 82.346667 43.741867 114.8416 67.498667 57.873067-13.056 124.5952-11.025067 178.304 0.443733 3.387733 0.725333 11.0592-3.5584 13.047467-5.290666 26.410667-23.0656 55.714133-44.416 87.1424-58.9824 17.0496-7.893333 34.9696-1.698133 43.4944 14.600533 27.8272 53.1968 30.754133 117.888 30.0288 178.696533-0.554667 46.190933 38.792533 77.115733 33.348266 174.967467zM364.714667 103.415467c-7.0912-7.9616-10.7264-12.509867-14.088534-15.2832l-30.839466-25.386667c-40.1152-17.809067-41.309867 84.1728-36.8128 104.738133 24.482133-21.469867 43.7504-39.1936 67.712-54.877866l14.037333-9.1904z m361.728 62.301866c2.5856-26.9824-2.235733-93.320533-19.515734-103.099733-16.964267-9.608533-46.7456 23.697067-62.0544 39.9616l65.0752 51.473067c5.137067 4.0704 9.258667 7.168 16.4864 11.665066zM432.2048 258.8672c8.337067-7.2704 3.968-27.8016-3.2-34.218667-20.309333-18.2016-53.0432-21.393067-62.890667-1.544533-2.4576 4.957867-1.911467 18.4576 1.442134 23.3984 13.1328 19.362133 43.776 30.5664 64.648533 12.356267z m184.311467-2.2528c11.963733-9.5744 13.2864-24.2432 7.569066-37.2992-19.089067-16.554667-47.1808-9.437867-64.162133 6.7584-9.506133 9.0624-9.9328 28.987733 0.6656 36.130133 17.262933 11.639467 39.441067 7.611733 55.918933-5.589333z m34.244266 73.557333l-46.549333-12.424533 37.597867-25.2928c3.5072-2.3552 5.819733-12.578133 2.9696-15.146667-2.269867-2.048-11.630933-3.985067-14.549334-2.244266l-65.194666 38.912c-3.601067 2.1504-7.185067 13.1584-4.241067 15.189333 2.3552 1.629867 7.9104 4.189867 11.374933 4.9408l76.040534 16.4864c4.736 1.024 13.064533-3.7888 13.5168-8.004267 0.375467-3.5072-6.613333-11.255467-10.9568-12.416z m-223.803733 10.965334c0.1792-2.372267-0.273067-10.333867-2.116267-12.834134-20.625067-27.912533-72.3712-28.322133-97.723733-2.9952-2.4576 2.4576-2.372267 13.056 0.802133 14.5664 3.1744 1.5104 12.416 0.836267 15.5136-1.3568 47.8464-33.809067 81.9712 23.594667 83.524267 2.6112z" fill="#F9C37D" p-id="2959"></path><path d="M428.288 364.202667l9.309867 6.254933c2.133333 1.4336 8.5248 0.017067 10.8544-0.597333l7.022933-1.8432c-0.64 9.506133 4.7104 25.463467 13.892267 29.866666l23.483733 11.272534c-24.277333 32.128-61.952-13.824-59.264 0.366933 0.290133 1.518933-0.247467 7.918933 0.896 8.7808l19.976533 15.112533 5.213867 25.4464c4.334933 21.179733 21.7856 34.798933 41.634133 34.397867 17.664-0.3584 35.114667-12.1344 39.3728-32.1792l6.1184-28.8256 19.541334-20.8384-16.008534-3.285333c-2.218667-0.452267-4.957867-4.992-6.903466-8.6784-5.794133-10.973867 13.3632-25.386667 18.2528-25.975467 3.6352-0.4352 11.434667 2.730667 15.658666 4.488533l42.752 17.783467 5.819734 36.9664c0.699733 4.445867 6.178133 11.989333 8.900266 15.291733 4.164267 5.0688 12.151467 16.9216 18.5344 19.908267 15.5392 7.278933 37.7856 13.713067 53.179734 16.290133 17.501867 2.926933 24.328533-18.141867 43.4432 6.5792-15.325867 14.404267-29.422933 30.958933-51.0208 41.710934-93.474133 46.506667-195.5584 56.362667-298.026667 33.911466-64.042667-14.0288-138.112-47.931733-167.4496-106.453333-0.128 0.571733 0.9728-4.241067 1.2032-5.469867 0.290133-1.570133 0.119467-1.501867 3.780267 5.307734 12.450133 7.0912 44.4672 22.144 61.9776 19.3024l31.880533-5.1712c7.611733-1.237333 19.4816-14.711467 24.721067-21.3504 16.580267-21.0176-2.423467-4.795733 19.703466-35.490134 0.6656-17.467733-25.019733-37.666133-16.503466-39.688533 1.271467-0.290133 2.807467-0.785067 3.694933-0.6656 1.527467 1.194667 9.0112 2.824533 12.6464 2.944l11.272533 0.3584c3.5328 0.110933 9.198933-2.500267 12.458667-3.8912l27.989333-11.904z" fill="#FAF0DE" p-id="2960"></path><path d="M797.7216 388.539733c-2.321067 41.693867-20.488533 76.5952-47.744 102.229334-19.1232-24.721067-25.941333-3.652267-43.4432-6.5792-15.394133-2.577067-37.640533-9.0112-53.179733-16.290134-6.382933-2.986667-14.3616-14.839467-18.5344-19.908266l-4.087467-21.0176c-0.9472-17.220267 2.141867-35.080533 7.8848-50.696534l19.208533-7.9104 7.816534 0.938667-14.3104 18.005333c-9.233067 11.6224-5.521067 53.0688 11.630933 64.085334 16.162133 10.385067 56.968533 11.349333 75.9552 5.0176l12.117333-16.1792c3.968-5.2992 4.309333-19.4304 3.643734-28.066134 0.0768-18.9184-4.5056-40.635733-23.441067-48.469333l-21.956267-9.079467 9.3184-6.033066c9.6-1.041067 22.826667-0.273067 33.621334 1.749333 29.141333 5.461333 33.152 27.281067 45.5168 38.186667z" fill="#F9E5CC" p-id="2961"></path><path d="M360.226133 377.3696c-8.507733 2.0224 17.169067 22.2208 16.503467 39.688533-22.126933 30.702933-3.1232 14.472533-19.703467 35.490134-5.239467 6.638933-17.109333 20.113067-24.721066 21.3504l-31.880534 5.1712c-17.5104 2.8416-49.527467-12.2112-61.9776-19.3024-3.652267-6.8096-3.4816-6.869333-3.780266-5.307734-0.2304 1.2288-1.3312 6.0416-1.2032 5.469867l-8.2688-16.494933c0.341333 0.170667 3.140267-5.7344 3.387733-7.9104l2.7392-24.106667c0.699733-12.305067 10.914133-39.9872 19.037867-45.090133l19.1744-12.0576-12.740267-2.397867c35.072-6.126933 71.3984 8.132267 103.432533 25.4976z m-38.528 78.2592c12.9024-6.4256 22.186667-20.488533 25.787734-36.642133 3.447467-15.470933-0.5632-28.142933-12.996267-37.4016-14.242133-10.615467-30.830933-18.304-49.646933-16.938667-35.0976 2.542933-41.693867 59.613867-30.651734 72.507733 5.7088 6.656 40.874667 31.752533 67.498667 18.4832z" fill="#FADBC1" p-id="2962"></path><path d="M256.802133 351.872l12.740267 2.397867-19.1744 12.0576c-8.1152 5.102933-18.338133 32.785067-19.037867 45.090133l-2.7392 24.106667c-0.247467 2.184533-3.0464 8.081067-3.387733 7.9104-7.296-14.5664-11.016533-29.252267-12.637867-43.272534 3.7376-28.654933 16.785067-43.4944 44.2368-48.290133z" fill="#F9E6D2" p-id="2963"></path><path d="M718.583467 348.5952l-9.3184 6.033067 21.956266 9.079466c18.935467 7.825067 23.5264 29.550933 23.441067 48.469334 0.6656 8.635733 0.3328 22.7584-3.643733 28.066133l-12.117334 16.1792c-18.986667 6.331733-59.793067 5.376-75.9552-5.0176-17.143467-11.025067-20.864-52.462933-11.630933-64.085333l14.3104-18.005334-7.816533-0.938666c19.5584-8.055467 39.466667-17.4592 60.7744-19.771734z m-2.2272 95.556267c7.133867-3.652267 18.039467-15.163733 21.154133-22.4512l-4.616533-22.1696c-1.774933-8.516267-15.035733-24.337067-23.850667-25.565867-4.7616-0.6656-17.339733 2.261333-21.6832 4.4032-12.936533 6.382933-21.444267 26.205867-16.213333 41.949867 2.500267 7.509333 14.8736 18.107733 21.981866 19.447466l23.2192 4.3776z" fill="#FAD0B2" p-id="2964"></path><path d="M364.714667 103.415467l-14.037334 9.1904c-23.9616 15.684267-43.229867 33.408-67.712 54.877866-4.497067-20.565333-3.293867-122.555733 36.8128-104.738133l30.839467 25.386667c3.362133 2.773333 6.997333 7.330133 14.088533 15.2832z" fill="#F9C5B8" p-id="2965"></path><path d="M726.442667 165.717333c-7.227733-4.497067-11.349333-7.6032-16.4864-11.665066l-65.0752-51.473067c15.300267-16.264533 45.0816-49.5616 62.0544-39.9616 17.28 9.787733 22.101333 76.125867 19.515733 103.099733z" fill="#F9C4B8" p-id="2966"></path><path d="M622.557867 379.349333c4.181333-0.273067 10.248533-1.4336 11.921066-3.208533 1.041067-0.2816 2.705067 0 4.130134 0.145067-5.742933 15.607467-8.832 33.476267-7.8848 50.696533l4.087466 21.0176c-2.7136-3.3024-8.200533-10.845867-8.900266-15.291733l-5.819734-36.9664-42.752-17.783467c-4.224-1.757867-12.014933-4.932267-15.658666-4.488533-4.8896 0.5888-24.0384 15.0016-18.2528 25.975466 1.9456 3.677867 4.6848 8.2176 6.903466 8.6784-4.795733 17.109333-39.714133 14.0544-48.213333 2.3808 15.701333-8.9344 25.386667-13.5936 33.1008-25.634133 5.597867-8.746667 0.6912-23.517867-8.977067-27.246933-24.072533-9.284267-55.1168-9.378133-70.766933 10.402133l-7.022933 1.8432c-2.338133 0.6144-8.7296 2.030933-10.8544 0.597333l-9.309867-6.254933c37.1456-38.1952 90.180267-37.2224 134.903467-3.3536 18.065067 13.678933 38.468267 19.8912 59.3664 18.500267z" fill="#F6EAD1" p-id="2967"></path><path d="M650.760533 330.171733c4.343467 1.160533 11.323733 8.917333 10.9568 12.416-0.452267 4.215467-8.7808 9.028267-13.5168 8.004267l-76.040533-16.4864c-3.456-0.750933-9.019733-3.310933-11.374933-4.9408-2.935467-2.030933 0.648533-13.038933 4.241066-15.189333l65.194667-38.912c2.926933-1.749333 12.288 0.196267 14.549333 2.244266 2.850133 2.568533 0.5376 12.791467-2.9696 15.146667l-37.597866 25.2928 46.549333 12.424533z" fill="#5B3329" p-id="2968"></path><path d="M616.516267 256.6144c-16.477867 13.192533-38.656 17.220267-55.918934 5.589333-10.5984-7.1424-10.171733-27.067733-0.6656-36.130133 16.981333-16.196267 45.064533-23.313067 64.162134-6.7584 5.717333 13.056 4.386133 27.7248-7.569067 37.2992z" fill="#F8EFD8" p-id="2969"></path><path d="M432.2048 258.8672c-20.872533 18.210133-51.515733 6.997333-64.648533-12.356267-3.3536-4.9408-3.899733-18.440533-1.442134-23.3984 9.847467-19.848533 42.581333-16.657067 62.890667 1.544534 7.159467 6.417067 11.528533 26.948267 3.2 34.218666z" fill="#F8EED7" p-id="2970"></path><path d="M426.9568 341.137067c-1.553067 20.983467-35.677867-36.420267-83.524267-2.6112-3.0976 2.193067-12.3392 2.8672-15.5136 1.3568-3.165867-1.5104-3.259733-12.1088-0.802133-14.5664 25.352533-25.335467 77.090133-24.925867 97.723733 2.9952 1.8432 2.500267 2.295467 10.461867 2.116267 12.834133z" fill="#553125" p-id="2971"></path><path d="M634.478933 376.1408c-1.672533 1.774933-7.739733 2.935467-11.921066 3.208533l11.921066-3.208533z" fill="#F9E5CC" p-id="2972"></path><path d="M400.298667 376.106667c-3.259733 1.390933-8.925867 4.002133-12.458667 3.8912l12.458667-3.8912zM376.567467 379.639467c-3.6352-0.110933-11.118933-1.7408-12.6464-2.944 3.4304 0.469333 10.5728 2.1248 12.6464 2.944z" fill="#FADBC1" p-id="2973"></path><path d="M550.340267 408.106667l16.008533 3.285333-19.541333 20.8384-6.1184 28.8256c-4.258133 20.0448-21.700267 31.8208-39.3728 32.1792-19.848533 0.401067-37.2992-13.218133-41.634134-34.397867l-5.213866-25.4464-19.976534-15.112533c-1.143467-0.8704-0.605867-7.261867-0.896-8.7808-2.696533-14.1824 34.986667 31.7696 59.264-0.366933l-23.483733-11.272534c-9.181867-4.4032-14.523733-20.360533-13.892267-29.866666 15.650133-19.780267 46.6944-19.6864 70.766934-10.402134 9.668267 3.729067 14.583467 18.500267 8.977066 27.246934-7.714133 12.049067-17.399467 16.699733-33.1008 25.634133 8.507733 11.6736 43.4176 14.737067 48.213334-2.3808z m-31.069867 64.836266c10.615467-9.3696 14.549333-27.170133 11.912533-38.510933L498.986667 425.813333l-30.208 8.8832c-0.529067 10.6496 1.245867 23.253333 7.125333 32.162134 9.9072 15.010133 28.177067 19.490133 43.3664 6.084266z" fill="#533027" p-id="2974"></path><path d="M321.698133 455.6288c-26.624 13.269333-61.7984-11.8272-67.498666-18.4832-11.042133-12.885333-4.4544-69.9648 30.651733-72.507733 18.816-1.365333 35.4048 6.3232 49.646933 16.938666 12.424533 9.2672 16.443733 21.930667 12.996267 37.4016-3.601067 16.1536-12.893867 30.216533-25.787733 36.642134z m-27.5968-15.633067c9.966933 0.733867 23.330133-2.884267 27.400534-7.1424 8.055467-8.4224 10.914133-28.501333 4.053333-37.6832-5.341867-7.150933-19.131733-17.783467-26.692267-17.4848-5.5808 1.288533-18.5344 6.9376-22.8608 10.222934-5.845333 4.437333-9.8304 22.570667-7.7056 29.585066 2.577067 8.5248 16.2304 21.802667 25.8048 22.510934z" fill="#FAC9AC" p-id="2975"></path><path d="M716.356267 444.151467l-23.2192-4.3776c-7.108267-1.339733-19.4816-11.938133-21.981867-19.447467-5.239467-15.744 3.2768-35.566933 16.213333-41.949867 4.334933-2.141867 16.9216-5.0688 21.6832-4.4032 8.823467 1.2288 22.084267 17.0496 23.850667 25.565867l4.616533 22.1696c-3.114667 7.287467-14.020267 18.798933-21.154133 22.4512z" fill="#FABF9E" p-id="2976"></path><path d="M519.2704 472.942933c-15.189333 13.397333-33.4592 8.917333-43.3664-6.084266-5.879467-8.9088-7.6544-21.512533-7.125333-32.162134l30.208-8.8832 32.196266 8.618667c2.645333 11.3408-1.297067 29.149867-11.912533 38.510933z" fill="#CB463C" p-id="2977"></path><path d="M294.101333 439.995733c-9.5744-0.708267-23.227733-13.986133-25.8048-22.510933-2.1248-7.0144 1.860267-25.147733 7.7056-29.585067 4.3264-3.285333 17.28-8.9344 22.8608-10.222933 7.552-0.298667 21.3504 10.3424 26.692267 17.4848 6.8608 9.181867 3.9936 29.2608-4.053333 37.6832-4.0704 4.258133-17.4336 7.876267-27.400534 7.1424z" fill="#FABC9C" p-id="2978"></path><path d="M816.6144 566.2976l-11.025067-6.9376 8.866134-15.854933-44.066134-45.021867c-23.296 22.3744-45.457067 38.545067-71.944533 53.8624-15.0784 33.2288-41.9072 51.524267-78.5664 60.279467-16.443733 3.925333-48.4864 5.009067-51.114667-20.224l-85.179733 2.090666-17.732267 0.4352c-2.961067 10.897067-9.480533 21.060267-19.268266 22.741334-44.586667 7.6288-87.330133-10.965333-108.817067-52.855467l-63.889067-24.7808c-12.202667-4.736-12.347733 16.759467-26.487466 47.223467l-10.837334 23.355733 42.709334 26.0352 54.084266 28.706133 6.408534-20.565333c0.853333-2.747733 7.867733-6.852267 10.9056-7.082667 3.0464-0.2304 4.650667 8.277333 3.9424 11.332267-7.9616 34.193067-13.568 68.181333-17.194667 101.5552-3.669333 2.884267-8.866133 5.8624-13.312 7.739733 0.0768-25.642667 2.816-49.979733 6.357333-77.764266l-37.2992-17.476267c-43.6992 70.442667-69.649067 146.525867-75.204266 230.894933 27.605333-12.9024 72.96-2.653867 94.5664 7.176534 1.937067 4.821333 4.471467 10.0608 7.176533 14.907733l-21.4528-5.111467c-27.221333-8.610133-55.552-11.4432-81.621333 0.631467l-1.646934 33.5872c-1.160533 23.6288-80.887467-6.7072-50.730666-124.680533 8.704-34.065067 20.181333-67.072 38.536533-97.032534l50.3552-82.218666c-27.682133-21.1456-79.744-44.842667-86.306133-82.218667-2.4064-13.704533 2.4576-28.279467 10.8544-37.614933 6.4256-7.1424 23.918933-15.061333 34.901333-13.2608l41.301333 6.766933c-78.958933-80.938667-69.981867-171.9296-33.390933-270.242133 4.087467-10.9824 6.280533-23.2192 6.1952-35.131734-0.418133-58.3424 4.1728-135.159467 32.128-185.1904 28.4672-50.952533 91.6992-8.977067 124.177067 15.675734l33.9968 25.813333c57.856-10.5984 115.490133-10.154667 173.730133 0.8704 33.390933-26.564267 118.724267-102.007467 154.436267-47.249067 32.5376 49.8944 37.794133 130.1504 36.258133 189.806934-0.264533 10.376533 1.476267 21.922133 4.906667 31.3344 25.838933 70.8864 42.530133 127.6416 17.169066 201.745066l17.860267-1.621333c25.105067-2.2784 46.941867 16.187733 45.073067 43.4176-2.363733 34.397867-31.633067 60.987733-49.8176 82.1504zM212.565333 400.162133c1.621333 14.020267 5.341867 28.714667 12.637867 43.272534l8.2688 16.494933c29.3376 58.5216 103.406933 92.424533 167.4496 106.453333 102.468267 22.4512 204.552533 12.5952 298.026667-33.911466 21.597867-10.752 35.703467-27.306667 51.0208-41.710934 27.264-25.634133 45.422933-60.535467 47.744-102.229333 5.444267-97.8432-33.902933-128.776533-33.348267-174.967467 0.733867-60.808533-2.2016-125.499733-30.0288-178.696533-8.5248-16.298667-26.453333-22.5024-43.4944-14.600533-31.428267 14.557867-60.731733 35.9168-87.1424 58.9824-1.979733 1.732267-9.659733 6.016-13.047467 5.290666-53.7088-11.4688-120.430933-13.499733-178.304-0.443733-32.494933-23.748267-77.115733-63.061333-114.8416-67.498667-7.057067-0.827733-21.085867 10.624-24.234666 17.348267-41.386667 88.260267-22.0672 175.2064-33.885867 208.3072-21.521067 60.279467-32.238933 94.6176-26.8288 157.9008z m627.677867 110.651734l10.666667-27.332267c-2.244267-15.496533-12.680533-29.687467-29.294934-25.9584l-21.9392 4.923733 11.1104 19.575467 29.457067 28.782933z m-8.4736 12.091733l-21.486933-24.3968-19.319467-21.9392-11.502933 11.639467c12.8768 17.416533 24.704 30.4896 41.045333 45.141333l11.264-10.4448z m-628.906667 59.016533c10.862933-22.016 17.041067-36.0704 23.5776-53.768533-19.165867-9.685333-40.516267-0.7424-43.153066 19.438933-1.8176 13.917867 6.408533 29.294933 19.566933 34.321067z m24.1408 21.265067c8.5504-18.0992 20.010667-45.943467 24.8832-61.482667 0.938667-3.003733-7.210667-13.713067-8.917333-11.869866-1.698133 1.834667-5.034667 5.614933-6.229333 8.021333l-26.999467 54.485333 17.2544 10.845867z m446.1056-33.646933l-4.701866-5.930667-73.386667 20.923733c-34.235733 9.762133 19.3536 38.1696 78.088533-15.0016z m-231.483733 21.469866l-79.991467-17.8688c0.6656 2.6112 6.741333 12.450133 10.4448 14.600534 64.1024 37.128533 93.661867 8.661333 69.538134 3.268266z m-243.6864 342.997334c1.595733-6.340267 2.986667-11.904 3.2-17.672534 3.549867-93.184 30.779733-179.336533 80.648533-257.7664-0.384-4.829867-13.4912-11.921067-16.187733-8.081066-20.0192 28.561067-37.265067 57.122133-53.0176 87.406933-23.953067 46.037333-68.736 159.496533-14.6432 196.113067z" fill="#4D2B22" p-id="2979"></path><path d="M816.6144 566.2976c-27.716267 32.256-56.96 59.101867-89.5744 85.179733 19.285333 66.3808 36.514133 170.717867 15.803733 237.8752-5.640533 18.286933-17.314133 32.145067-32.128 44.629334-13.482667 11.357867-2.5344 23.517867-16.341333 58.376533-3.456 8.712533-12.919467 17.058133-19.797333 19.259733-22.8608 7.3216-44.074667-14.728533-48.162134-30.660266l-11.178666-43.605334c-36.693333 5.154133-75.204267 7.509333-113.0496 5.623467-2.9184 28.433067-6.4256 81.399467-44.330667 81.006933-10.461867-0.110933-26.3424-8.7808-30.208-19.524266l-11.409067-31.650134c-6.135467-17.015467-25.429333-8.763733-50.935466-38.365866l-35.626667-12.219734c-2.6112-0.896-8.593067-4.974933-9.9584-6.178133-2.705067-4.846933-5.239467-10.0864-7.176533-14.907733 4.821333 2.193067 15.0016 5.102933 21.333333 6.656l17.3568 4.2496c3.8656 0.9472 9.105067 3.285333 16.034133 6.340266l4.6336-2.193066c21.154133 30.813867 64.059733 40.96 89.728 14.6688 22.459733-22.997333-7.3216-55.3472 21.76-52.309334 49.365333 5.154133 94.481067 3.029333 143.4368-7.125333 11.8016 10.683733 5.290667 37.3248 28.7232 49.757867 12.612267 6.690133 29.0816 9.4208 41.207467 2.432 39.995733-23.048533 41.053867-88.797867 37.521067-131.490134-43.4688 14.216533-82.525867 24.192-127.616 29.824-0.324267-0.861867-4.608-6.3488-6.7072-6.792533l-13.1584-2.756267 12.177066-2.141866 44.0832-7.8336c31.5136-5.597867 58.990933-14.8224 90.3936-25.7792l-2.7904-29.0304c-121.736533 42.350933-270.6432 49.271467-392.942933 18.346666-4.701867-1.186133-4.8128 9.6256-13.636267 6.997334l0.042667-14.6432c4.4544-1.877333 9.642667-4.855467 13.312-7.739734 39.876267 13.0816 82.2784 17.442133 126.370133 20.983467 92.842667 2.397867 176.605867-6.0416 265.284267-38.306133-6.724267-37.248-15.189333-70.8352-26.0096-107.298134-0.750933-2.542933-1.1264-9.736533 1.143467-10.948266 3.0208-1.604267 10.129067 2.056533 12.2368 4.8128l9.0624 11.810133c35.822933-27.733333 51.882667-48.827733 80.068266-72.277333l11.025067 6.9376z m-310.6048 361.156267c39.697067 2.500267 73.745067 1.160533 109.934933-8.251734l2.56-30.523733c-43.016533 8.183467-80.059733 10.350933-123.264 6.698667-2.210133-0.187733-6.203733 0.059733-7.918933 0.349866-1.7152 0.290133-2.269867 6.075733-2.56 9.1392-1.220267 12.859733 8.183467 21.768533 21.248 22.587734z m181.486933 15.684266c-25.0112-1.5616-37.5552-8.6016-56.849066-22.289066 1.092267 22.826667 6.724267 71.7312 31.573333 77.5936 21.674667 5.111467 27.886933-43.093333 25.275733-55.304534z m-202.3168-6.801066c-3.652267-1.2032-7.3728-2.423467-6.792533-2.235734-14.062933 15.812267-28.910933 22.254933-50.1248 26.999467l11.9296 36.0448c1.8432 5.563733 11.861333 12.714667 17.348267 12.535467 27.118933-0.896 28.629333-51.566933 27.648-73.344z" fill="#502F27" p-id="2980"></path><path d="M805.589333 559.368533c-28.1856 23.4496-44.245333 44.544-80.068266 72.277334l-9.0624-11.810134c-2.116267-2.756267-9.216-6.417067-12.2368-4.8128-2.269867 1.2032-1.902933 8.405333-1.143467 10.948267 10.820267 36.462933 19.285333 70.050133 26.0096 107.298133-88.6784 32.264533-172.450133 40.704-265.284267 38.306134-44.091733-3.541333-86.485333-7.901867-126.370133-20.983467 3.626667-33.373867 9.233067-67.362133 17.194667-101.5552 0.708267-3.054933-0.896-11.562667-3.9424-11.332267-3.037867 0.2304-10.052267 4.334933-10.9056 7.082667l-6.408534 20.565333-54.084266-28.706133-42.709334-26.0352 10.837334-23.355733c14.139733-30.464 14.2848-51.959467 26.487466-47.223467l63.889067 24.7808c21.4784 41.890133 64.2304 60.484267 108.817067 52.855467 9.787733-1.672533 16.3072-11.844267 19.268266-22.741334l17.732267-0.4352 85.179733-2.090666c2.628267 25.233067 34.670933 24.149333 51.114667 20.224 36.650667-8.7552 63.479467-27.050667 78.5664-60.279467 26.487467-15.317333 48.648533-31.488 71.944533-53.8624l44.066134 45.021867-8.866134 15.854933zM544.042667 758.869333l45.866666-28.9792c22.4256-14.165333 70.4256-39.005867 46.216534-78.148266-10.274133-16.605867-29.073067-27.153067-48.750934-30.114134-42.589867-6.417067-92.330667-3.285333-136.192 4.386134-14.336 2.5088-28.782933 13.7984-39.296 23.389866-11.6992 18.696533-11.972267 40.823467 5.0944 56.1664 8.686933 7.808 21.085867 16.930133 31.906134 22.365867l67.165866 33.757867c6.212267 3.1232 22.229333 0.802133 27.9808-2.824534z" fill="#217DB5" p-id="2981"></path><path d="M324.1216 758.3232l-0.042667 14.6432c-0.136533 47.5392 9.275733 94.958933 27.153067 139.093333l-17.3568-4.2496c-6.331733-1.553067-16.512-4.462933-21.333333-6.656-21.6064-9.821867-66.961067-20.0704-94.5664-7.176533 5.5552-84.369067 31.505067-160.443733 75.204266-230.894933l37.2992 17.476266c-3.541333 27.784533-6.280533 52.1216-6.357333 77.764267z" fill="#D7332C" p-id="2982"></path><path d="M197.9392 934.007467c-54.0928-36.625067-9.309867-150.075733 14.6432-196.113067 15.752533-30.2848 32.9984-58.845867 53.0176-87.406933 2.688-3.84 15.803733 3.2512 16.187733 8.081066-49.8688 78.429867-77.098667 164.5824-80.648533 257.7664-0.221867 5.768533-1.604267 11.332267-3.2 17.672534z" fill="#D1372F" p-id="2983"></path><path d="M202.862933 581.922133c-13.1584-5.034667-21.384533-20.411733-19.566933-34.321066 2.628267-20.181333 23.978667-29.124267 43.153067-19.438934-6.545067 17.6896-12.714667 31.752533-23.5776 53.768534z" fill="#ECE5D7" p-id="2984"></path><path d="M840.2432 510.813867l-29.457067-28.782934-11.1104-19.575466 21.9392-4.923734c16.6144-3.729067 27.042133 10.461867 29.294934 25.9584l-10.666667 27.332267z" fill="#F1E9DC" p-id="2985"></path><path d="M673.109333 569.540267c-58.734933 53.1712-112.324267 24.763733-78.088533 15.0016l73.386667-20.923734 4.701866 5.930667z" fill="#CA3629" p-id="2986"></path><path d="M441.6256 591.010133c24.123733 5.393067-5.435733 33.860267-69.538133-3.268266-3.712-2.1504-9.787733-11.9808-10.4448-14.600534l79.991466 17.8688z" fill="#C6382A" p-id="2987"></path><path d="M227.003733 603.1872l-17.2544-10.845867 26.999467-54.485333c1.194667-2.4064 4.522667-6.1952 6.229333-8.021333 1.706667-1.8432 9.856 8.866133 8.917334 11.869866-4.872533 15.5392-16.341333 43.392-24.8832 61.482667z" fill="#C52E28" p-id="2988"></path><path d="M831.7696 522.9056l-11.264 10.4448c-16.341333-14.660267-28.168533-27.733333-41.045333-45.141333l11.502933-11.639467 19.319467 21.9392 21.486933 24.3968z" fill="#BA2F29" p-id="2989"></path><path d="M371.899733 916.1984c-18.269867-31.633067-24.337067-66.619733-30.173866-106.205867 95.3856 22.331733 170.299733 23.790933 264.942933 11.963734 45.090133-5.640533 84.1472-15.616 127.616-29.824 3.5328 42.692267 2.474667 108.4416-37.521067 131.490133-12.1344 6.9888-28.603733 4.258133-41.207466-2.432-23.432533-12.433067-16.9216-39.074133-28.7232-49.757867-48.964267 10.154667-94.071467 12.279467-143.4368 7.125334-29.090133-3.037867 0.699733 29.312-21.76 52.309333-25.668267 26.2912-68.573867 16.136533-89.728-14.6688z" fill="#207DB5" p-id="2990"></path><path d="M586.8032 812.407467c-84.7872 7.3216-149.879467 6.382933-234.666667-13.815467-4.138667-0.989867-12.868267-6.698667-13.073066-10.129067l-1.348267-22.5024c122.299733 30.9248 271.2064 24.004267 392.942933-18.346666l2.7904 29.0304c-31.402667 10.9568-58.88 20.181333-90.3936 25.7792l-44.0832 7.8336-12.177066 2.141866z" fill="#CF332B" p-id="2991"></path><path d="M586.8032 812.407467l13.1584 2.756266c2.0992 0.443733 6.382933 5.930667 6.7072 6.792534-94.651733 11.835733-169.557333 10.376533-264.942933-11.963734 5.8368 39.5776 11.895467 74.5728 30.173866 106.205867l-4.6336 2.193067c-6.929067-3.054933-12.168533-5.393067-16.034133-6.340267-17.877333-44.1344-27.2896-91.554133-27.153067-139.093333 8.823467 2.628267 8.9344-8.183467 13.636267-6.997334l1.348267 22.5024c0.2048 3.4304 8.9344 9.147733 13.073066 10.129067 84.7872 20.1984 149.879467 21.128533 234.666667 13.815467z" fill="#4D2B22" p-id="2992"></path><path d="M506.0096 927.453867c-13.064533-0.8192-22.468267-9.728-21.248-22.587734 0.290133-3.072 0.836267-8.849067 2.56-9.1392 1.7152-0.290133 5.7088-0.5376 7.918933-0.349866 43.204267 3.652267 80.247467 1.4848 123.264-6.698667l-2.56 30.523733c-36.189867 9.4208-70.237867 10.752-109.934933 8.251734z" fill="#D4372F" p-id="2993"></path><path d="M687.496533 943.138133c2.6112 12.2112-3.601067 60.416-25.275733 55.304534-24.849067-5.8624-30.481067-54.766933-31.573333-77.5936 19.285333 13.687467 31.837867 20.727467 56.849066 22.289066z" fill="#CF362F" p-id="2994"></path><path d="M485.179733 936.337067c0.989867 21.777067-0.529067 72.448-27.648 73.344-5.486933 0.1792-15.505067-6.971733-17.348266-12.535467l-11.9296-36.0448c21.2224-4.744533 36.0704-11.1872 50.1248-26.999467-0.580267-0.196267 3.140267 1.032533 6.792533 2.235734z" fill="#D1332C" p-id="2995"></path><path d="M544.042667 758.869333c-5.751467 3.6352-21.768533 5.947733-27.9808 2.824534l-67.165867-33.757867c-10.820267-5.435733-23.2192-14.557867-31.906133-22.365867-17.066667-15.342933-16.7936-37.469867-5.0944-56.1664 10.513067-9.591467 24.96-20.881067 39.296-23.389866 43.8528-7.671467 93.5936-10.8032 136.192-4.386134 19.677867 2.961067 38.485333 13.508267 48.750933 30.114134 24.209067 39.1424-23.790933 63.982933-46.216533 78.148266l-45.866667 28.9792z m-4.650667-13.5936c7.714133-4.078933 15.453867-8.891733 23.662933-15.522133 16.981333-9.685333 74.1376-35.857067 66.6368-62.1568-4.608-16.162133-21.8112-30.250667-39.594666-32.8192-42.88-6.186667-132.701867-10.112-165.666134 19.8656-10.589867 9.634133-11.605333 26.862933-1.9456 36.957867 8.081067 8.448 19.072 17.467733 29.073067 22.647466l62.711467 32.494934c5.290667 2.7392 17.8176 2.3808 25.130666-1.4592z" fill="#51312A" p-id="2996"></path><path d="M563.054933 729.7536l-3.6864-5.256533 1.28-20.334934c-12.740267-2.926933-29.696-3.456-42.120533 1.425067-5.751467 2.261333-8.5248 19.515733-4.573867 24.0896 13.704533 15.829333 28.7488 8.866133 25.437867 15.607467-7.3216 3.831467-19.84 4.1984-25.130667 1.4592l-62.711466-32.494934c-10.001067-5.179733-20.992-14.199467-29.073067-22.647466-9.659733-10.0864-8.644267-27.323733 1.9456-36.957867 32.964267-29.9776 122.786133-26.052267 165.666133-19.8656 17.783467 2.568533 34.978133 16.657067 39.594667 32.8192 7.5008 26.299733-49.655467 52.471467-66.6368 62.1568z m-14.301866-46.8992c2.4832 1.28 13.550933-1.962667 13.661866-4.488533l0.580267-13.576534c0.290133-6.912-10.5216-16.964267-17.988267-17.117866-16.4864-0.3328-23.022933 21.376-20.266666 22.8096l6.997333 3.6352 17.024 8.746666z m-45.073067 20.6592l15.556267-14.421333-4.9152-38.152534c-9.506133-0.981333-21.597867-0.802133-27.511467 2.338134-3.2 1.698133-2.7904 12.373333-3.4048 17.826133-2.602667 23.108267-7.3728 6.5024-10.359467 28.1856-0.418133 3.072 16.443733 17.365333 30.634667 4.215467z" fill="#D1322D" p-id="2997"></path><path d="M563.054933 729.7536c-8.209067 6.6304-15.9488 11.4432-23.662933 15.522133 3.310933-6.741333-11.733333 0.221867-25.437867-15.607466-3.959467-4.573867-1.186133-21.828267 4.573867-24.0896 12.424533-4.881067 29.380267-4.360533 42.120533-1.425067l-1.28 20.334933 3.6864 5.256534zM503.68 703.5136c-14.190933 13.149867-31.0528-1.152-30.634667-4.215467 2.978133-21.691733 7.7568-5.077333 10.359467-28.1856 0.6144-5.461333 0.2048-16.128 3.4048-17.826133 5.9136-3.140267 18.005333-3.319467 27.511467-2.338133l4.9152 38.152533-15.556267 14.421333zM548.753067 682.8544l-17.024-8.746667-6.997334-3.6352c-2.756267-1.425067 3.780267-23.133867 20.266667-22.8096 7.4752 0.145067 18.286933 10.205867 17.988267 17.117867l-0.580267 13.576533c-0.110933 2.525867-11.170133 5.768533-13.661867 4.488534z" fill="#C42D27" p-id="2998"></path></svg>